<svg width="512" height="513" viewBox="0 0 512 513" fill="none" xmlns="http://www.w3.org/2000/svg">
<g clip-path="url(#clip0_533_3524)">
<g clip-path="url(#clip1_533_3524)">
<rect width="512" height="512" transform="translate(0 0.5)" fill="url(#paint0_linear_533_3524)"/>
<path d="M-3.19775 130.725H515.198" stroke="white" stroke-width="18" stroke-linecap="round" stroke-dasharray="26 38"/>
<path d="M326.457 310.391V301.762L338.851 299.566V215.943L326.143 213.433V204.333L353.756 200.725L359.561 202.921V236.653L357.992 237.751L358.463 238.692C359.718 237.751 361.6 236.653 364.111 235.397C366.725 234.142 369.602 233.044 372.74 232.103C375.982 231.057 379.224 230.534 382.467 230.534C387.069 230.534 391.044 231.266 394.391 232.73C397.738 234.195 400.3 236.6 402.078 239.947C403.856 243.19 404.745 247.478 404.745 252.812V299.566L416.355 301.762V310.391H373.681V301.762L384.036 299.566V256.735C384.036 253.911 383.774 251.61 383.251 249.831C382.728 247.949 381.578 246.589 379.8 245.752C378.022 244.811 375.302 244.34 371.641 244.34C369.759 244.34 367.667 244.445 365.366 244.654C363.065 244.863 361.13 245.177 359.561 245.595V299.566L369.916 301.762V310.391H326.457Z" fill="white"/>
<path d="M299.06 311.803C293.621 311.803 289.28 311.019 286.038 309.45C282.9 307.776 280.703 305.371 279.448 302.233C278.193 299.095 277.566 295.225 277.566 290.623V243.87H262.504V233.829L277.566 230.534L284.469 211.55H298.275V232.103H320.397V239.32L318.2 243.87H298.275V287.799C298.275 291.983 299.007 294.702 300.472 295.957C302.041 297.213 304.132 297.84 306.747 297.84C309.048 297.84 311.245 297.631 313.337 297.213C315.429 296.69 317.207 296.062 318.671 295.33L321.338 303.331C318.723 305.946 315.376 308.038 311.297 309.607C307.218 311.071 303.139 311.803 299.06 311.803Z" fill="white"/>
<path d="M209.705 312.274C204.267 312.274 199.821 311.333 196.37 309.45C193.023 307.463 190.565 304.952 188.996 301.919C187.532 298.781 186.799 295.434 186.799 291.878C186.799 287.067 188.002 283.145 190.408 280.111C192.813 276.974 196.004 274.463 199.978 272.581C203.953 270.698 208.293 269.391 213 268.658L229.787 265.834V255.48C229.787 253.283 229.474 251.296 228.846 249.518C228.323 247.635 227.225 246.171 225.551 245.125C223.878 244.079 221.42 243.556 218.178 243.556C216.086 243.556 214.464 243.66 213.314 243.87C212.268 244.079 211.484 244.288 210.961 244.497L208.764 258.617C208.555 258.722 207.666 259.036 206.097 259.559C204.633 259.977 202.75 260.186 200.449 260.186C197.102 260.186 194.435 259.559 192.447 258.304C190.565 256.944 189.623 254.486 189.623 250.93C189.623 247.478 190.774 244.497 193.075 241.987C195.376 239.372 198.252 237.228 201.704 235.554C205.26 233.776 208.973 232.521 212.843 231.789C216.713 230.952 220.217 230.534 223.355 230.534C229.003 230.534 233.814 231.214 237.789 232.573C241.868 233.933 245.006 236.182 247.202 239.32C249.399 242.353 250.497 246.537 250.497 251.871V297.683L261.95 299.88V307.881C261.636 307.986 260.643 308.352 258.969 308.979C257.296 309.607 255.151 310.13 252.537 310.548C250.026 311.071 247.359 311.333 244.535 311.333C240.142 311.333 237.057 310.705 235.279 309.45C233.501 308.09 232.245 306.26 231.513 303.959H230.415C229.474 304.796 228.009 305.894 226.022 307.254C224.139 308.613 221.786 309.764 218.962 310.705C216.243 311.751 213.157 312.274 209.705 312.274ZM219.746 298.625C222.048 298.625 224.035 298.363 225.708 297.84C227.382 297.213 228.742 296.637 229.787 296.114V276.817C223.826 277.235 219.328 278.072 216.295 279.327C213.366 280.477 211.379 281.89 210.333 283.563C209.287 285.237 208.764 287.067 208.764 289.054C208.764 295.434 212.425 298.625 219.746 298.625Z" fill="white"/>
<path d="M95.6445 310.391V301.605L108.196 298.625V220.493L95.6445 217.512V208.726H139.731C148.621 208.726 156.048 209.615 162.009 211.393C167.971 213.171 172.469 216.205 175.502 220.493C178.535 224.677 180.052 230.534 180.052 238.065C180.052 244.968 178.378 250.825 175.031 255.636C171.684 260.343 167.187 263.847 161.539 266.148C155.891 268.449 149.615 269.547 142.712 269.443C141.875 269.443 141.038 269.443 140.202 269.443C139.469 269.338 138.685 269.234 137.848 269.129L137.064 261.755C142.084 261.128 146.007 259.925 148.831 258.147C151.655 256.369 153.642 253.806 154.792 250.459C155.943 247.112 156.518 242.928 156.518 237.908C156.518 232.678 155.106 228.494 152.282 225.356C149.458 222.219 145.065 220.65 139.103 220.65C137.43 220.65 135.809 220.702 134.24 220.807C132.671 220.911 131.416 221.068 130.474 221.277V298.625L143.026 301.605V310.391H95.6445Z" fill="white"/>
<path d="M-3.19775 382.275H515.198" stroke="white" stroke-width="18" stroke-linecap="round" stroke-dasharray="26 38"/>
</g>
</g>
<defs>
<linearGradient id="paint0_linear_533_3524" x1="256" y1="0" x2="256" y2="512" gradientUnits="userSpaceOnUse">
<stop stop-color="white" stop-opacity="0.4"/>
<stop offset="1" stop-color="white" stop-opacity="0.1"/>
</linearGradient>
<clipPath id="clip0_533_3524">
<rect width="512" height="512" fill="white" transform="translate(0 0.5)"/>
</clipPath>
<clipPath id="clip1_533_3524">
<rect width="512" height="512" fill="white" transform="translate(0 0.5)"/>
</clipPath>
</defs>
</svg>
