<svg width="425" height="332" viewBox="0 0 425 332" fill="none" xmlns="http://www.w3.org/2000/svg">
<path d="M221.369 292.4C221.44 304.152 230.985 313.659 242.753 313.659C254.495 313.659 264.024 304.193 264.137 292.478C264.135 292.413 264.133 292.346 264.133 292.281C264.133 287.234 268.225 283.141 273.272 283.141C278.316 283.141 282.406 287.227 282.413 292.269H282.424C282.423 314.177 264.662 331.939 242.753 331.939L241.73 331.927C220.295 331.384 203.084 313.835 203.084 292.269L203.097 228.924H221.369V292.4ZM424.771 174.117V204.117C424.771 204.117 403.467 209.517 364.273 214.706V174.116L222.469 29L300.663 174.116V221.08C283.453 222.295 264.621 223.236 244.273 223.73V174.116L212.468 39L180.663 174.116V223.73C160.173 223.233 141.219 222.282 123.912 221.055V174.116L202.107 29L60.3018 174.116V214.659C21.437 209.498 0.272812 204.144 0.166016 204.117V174.117L212.468 0.896484L424.771 174.117Z" fill="white"/>
</svg>
