<?xml version="1.0" encoding="utf-8"?>
<!-- Generator: Adobe Illustrator 27.5.0, SVG Export Plug-In . SVG Version: 6.00 Build 0)  -->
<svg version="1.1" id="Layer_1" xmlns="http://www.w3.org/2000/svg" xmlns:xlink="http://www.w3.org/1999/xlink" x="0px" y="0px"
	 viewBox="0 0 17.7 21.8" style="enable-background:new 0 0 17.7 21.8;" xml:space="preserve">
<style type="text/css">
	.st0{fill:#FFFFFF;}
</style>
<g id="_Group_2">
	<g id="_Group_3">
		<path id="_Path_" class="st0" d="M14.8,11.6c0-1.7,0.9-3.3,2.4-4.2c-0.9-1.3-2.4-2.1-4-2.2c-1.7-0.2-3.3,1-4.2,1
			c-0.9,0-2.2-1-3.6-1C3.5,5.4,1.8,6.4,0.9,8c-1.9,3.3-0.5,8.3,1.4,11c0.9,1.3,2,2.8,3.4,2.8c1.4-0.1,1.9-0.9,3.6-0.9
			c1.7,0,2.1,0.9,3.6,0.9c1.5,0,2.4-1.3,3.3-2.7c0.7-0.9,1.2-2,1.5-3.1C15.9,15.2,14.8,13.5,14.8,11.6z"/>
		<path id="_Path_2" class="st0" d="M12.1,3.5c0.8-1,1.2-2.2,1.1-3.5c-1.2,0.1-2.4,0.7-3.2,1.7C9.2,2.6,8.7,3.8,8.8,5
			C10.1,5,11.3,4.5,12.1,3.5z"/>
	</g>
</g>
</svg>
