<?xml version="1.0" encoding="utf-8"?>
<!-- Generator: Adobe Illustrator 27.5.0, SVG Export Plug-In . SVG Version: 6.00 Build 0)  -->
<svg version="1.1" id="Layer_1" xmlns="http://www.w3.org/2000/svg" xmlns:xlink="http://www.w3.org/1999/xlink" x="0px" y="0px"
	 viewBox="0 0 23 25.7" style="enable-background:new 0 0 23 25.7;" xml:space="preserve">
<style type="text/css">
	.st0{fill:#FFFFFF;}
</style>
<path class="st0" d="M10.8,12.2l5.1-5.1L4.4,0.4C3.9,0.2,3.4,0,2.9,0C1.7,0,0.8,0.7,0.3,1.6L10.8,12.2z"/>
<path class="st0" d="M21.5,10.4L21.5,10.4l-4.7-2.7l-5.2,5.2l5.3,5.3l4.7-2.7c0.9-0.5,1.5-1.4,1.5-2.5C23,11.8,22.4,10.8,21.5,10.4z
	"/>
<path class="st0" d="M10.8,13.6L0.3,24.1c0.5,1,1.4,1.6,2.6,1.6c0.5,0,1-0.1,1.5-0.4l0,0l11.5-6.7L10.8,13.6z"/>
<path class="st0" d="M0,2.8c0,0,0,0.1,0,0.1v20c0,0,0,0.1,0,0.1l10.1-10.1L0,2.8z"/>
</svg>
