<svg width="512" height="513" viewBox="0 0 512 513" fill="none" xmlns="http://www.w3.org/2000/svg">
<g clip-path="url(#clip0_531_3868)">
<rect width="512" height="512" transform="translate(0 0.5)" fill="url(#paint0_linear_531_3868)"/>
<path d="M445.553 257.001C445.553 335.914 397.332 403.565 328.748 432.093C319.605 435.896 310.052 428.793 310.052 418.891V399.275C310.052 393.26 313.724 387.908 319.118 385.248C366.387 361.94 398.905 313.268 398.905 257.001C398.905 178.077 334.924 114.096 256 114.096C177.076 114.096 113.095 178.077 113.095 257.001C113.095 304.839 136.6 347.187 172.692 373.126C181.595 379.524 193.062 372.525 193.062 361.561L193.062 184.54C193.062 180.857 193.832 178.24 195.372 176.689C197.105 174.944 199.8 174.072 203.457 174.072L324.833 174.072C328.49 174.072 331.089 174.944 332.629 176.689C334.361 178.24 335.227 180.857 335.227 184.54V219.144C335.227 222.827 334.361 225.541 332.629 227.286C331.089 228.837 328.49 229.612 324.833 229.612H253.424C252.197 229.612 251.203 230.607 251.203 231.834V257.633C251.203 258.859 252.197 259.854 253.424 259.854L301.444 259.854C305.102 259.854 307.7 260.726 309.24 262.471C310.973 264.022 311.839 266.639 311.839 270.322V305.217C311.839 308.9 310.973 311.614 309.24 313.359C307.7 314.91 305.102 315.685 301.444 315.685H253.424C252.197 315.685 251.203 316.68 251.203 317.906V406.469C251.203 407.24 251.165 407.97 251.089 408.656C250.967 409.754 250.817 410.853 250.817 411.958V431.273C250.817 439.608 243.918 446.358 235.631 445.473C140.522 435.312 66.4468 354.807 66.4468 257.001C66.4468 152.314 151.313 67.4482 256 67.4482C360.687 67.4482 445.553 152.314 445.553 257.001Z" fill="white"/>
</g>
<defs>
<linearGradient id="paint0_linear_531_3868" x1="256" y1="0" x2="256" y2="512" gradientUnits="userSpaceOnUse">
<stop stop-color="white" stop-opacity="0.4"/>
<stop offset="1" stop-color="white" stop-opacity="0.1"/>
</linearGradient>
<clipPath id="clip0_531_3868">
<rect width="512" height="512" fill="white" transform="translate(0 0.5)"/>
</clipPath>
</defs>
</svg>
