<svg width="512" height="513" viewBox="0 0 512 513" fill="none" xmlns="http://www.w3.org/2000/svg">
<g clip-path="url(#clip0_531_4086)">
<rect width="512" height="512" transform="translate(0 0.5)" fill="url(#paint0_linear_531_4086)"/>
<path opacity="0.5" d="M338.267 88.5165C347.375 88.5165 355.79 93.3751 360.343 101.262L442.611 243.754C447.165 251.641 447.165 261.359 442.611 269.245L360.343 411.738C355.79 419.625 347.375 424.483 338.267 424.483L173.732 424.483C164.625 424.483 156.209 419.625 151.656 411.738L69.3878 269.245C64.8342 261.358 64.8342 251.641 69.3878 243.754L151.656 101.262C156.209 93.3751 164.625 88.5165 173.732 88.5165L338.267 88.5165Z" fill="white"/>
<path d="M410.419 187.997L173.933 424.484H173.732C164.625 424.484 156.209 419.625 151.655 411.738L129.497 373.36L375.443 127.415L410.419 187.997ZM444.916 249.061C446.953 255.737 446.186 263.055 442.611 269.246L360.344 411.738C355.79 419.625 347.375 424.484 338.268 424.484H269.493L444.916 249.061ZM94.5206 312.777L69.3878 269.246C64.8343 261.359 64.8343 251.642 69.3878 243.755L71.3029 240.436L223.222 88.5176H318.781L94.5206 312.777Z" fill="white"/>
</g>
<defs>
<linearGradient id="paint0_linear_531_4086" x1="256" y1="0" x2="256" y2="512" gradientUnits="userSpaceOnUse">
<stop stop-color="white" stop-opacity="0.4"/>
<stop offset="1" stop-color="white" stop-opacity="0.1"/>
</linearGradient>
<clipPath id="clip0_531_4086">
<rect width="512" height="512" fill="white" transform="translate(0 0.5)"/>
</clipPath>
</defs>
</svg>
