<svg width="512" height="513" viewBox="0 0 512 513" fill="none" xmlns="http://www.w3.org/2000/svg">
<g clip-path="url(#clip0_531_4384)">
<rect width="512" height="512" transform="translate(0 0.5)" fill="url(#paint0_linear_531_4384)"/>
<path d="M98.4953 245.523C122.496 227.323 142.103 323.29 225.27 367.494C308.436 411.698 402.019 359.449 405.784 321.107C409.549 282.766 377.559 297.627 377.559 297.627C377.559 297.627 373.781 293.927 387.912 281.496C402.044 269.065 422.11 280.402 424.513 307.924C426.915 335.446 360.451 446.034 219.79 386.698C79.1293 327.362 74.4952 263.724 98.4953 245.523ZM340.404 139.018C359.989 139.018 374.17 144.345 382.944 154.999C391.717 165.653 396.105 180.381 396.105 199.183C396.105 215.947 392.97 233.416 386.703 251.591C380.436 269.765 370.723 285.199 357.562 297.89C344.557 310.424 328.498 316.691 309.383 316.691C296.222 316.691 285.881 312.931 278.361 305.41C270.997 297.89 267.315 285.904 267.315 269.453C267.315 255.509 269.821 239.841 274.835 222.449C279.849 205.058 287.134 190.173 296.692 177.796C306.406 165.418 317.843 159.23 331.004 159.229C335.704 159.229 339.778 159.856 343.225 161.109C336.331 165.183 329.672 173.565 323.248 186.256C316.981 198.947 311.89 213.127 307.973 228.795C304.056 244.463 302.097 258.328 302.097 270.393C302.097 278.853 303.193 285.512 305.387 290.369C307.58 295.226 311.028 297.655 315.728 297.655C323.405 297.655 331.004 292.171 338.525 281.203C346.202 270.079 352.469 256.135 357.326 239.37C362.34 222.606 364.847 206.468 364.847 190.957C364.847 181.243 363.985 173.487 362.262 167.689C360.695 161.736 357.718 157.271 353.331 154.294C348.944 151.317 342.755 149.828 334.765 149.828C322.701 149.828 311.497 152.335 301.156 157.349C290.816 162.206 282.512 169.257 276.245 178.501C270.135 187.588 267.079 198.164 267.079 210.229C267.079 214.459 267.471 217.592 268.254 219.629C269.037 221.509 269.43 222.605 269.43 222.919C261.596 222.919 255.641 221.352 251.568 218.219C247.651 215.085 245.693 210.071 245.693 203.178C245.693 192.367 250.08 182.026 258.854 172.155C267.784 162.285 279.535 154.294 294.107 148.184C308.834 142.073 324.267 139.018 340.404 139.018ZM221.543 109.055C233.294 109.055 242.773 111.64 249.981 116.811C257.188 121.981 260.791 129.893 260.791 140.547C260.791 147.284 259.46 152.611 256.796 156.528C254.133 160.289 249.98 162.169 244.34 162.169C238.7 162.169 234.235 160.132 230.945 156.059C233.765 154.648 236.272 151.828 238.465 147.598C240.658 143.367 241.755 138.98 241.755 134.437C241.755 130.206 240.58 126.759 238.23 124.096C236.036 121.432 232.433 120.101 227.419 120.101C219.115 120.101 211.202 125.819 203.682 137.257C196.161 148.538 190.051 162.796 185.351 180.03C180.807 197.265 178.535 213.873 178.535 229.854C178.535 241.762 180.572 250.849 184.646 257.116C188.719 263.383 196.083 266.517 206.737 266.517C215.981 266.517 224.521 264.48 232.355 260.406C240.188 256.333 246.925 250.535 252.566 243.015L257.971 245.365C254.054 255.236 248.257 263.462 240.58 270.042C232.903 276.622 224.677 281.48 215.903 284.613C207.13 287.59 198.825 289.079 190.991 289.079C173.287 289.079 160.282 284.613 151.978 275.683C143.674 266.752 139.523 251.945 139.523 231.264C139.523 214.813 142.265 197.108 147.748 178.15C153.389 159.192 162.319 142.975 174.54 129.501C186.918 115.87 202.585 109.055 221.543 109.055Z" fill="white"/>
</g>
<defs>
<linearGradient id="paint0_linear_531_4384" x1="256" y1="0" x2="256" y2="512" gradientUnits="userSpaceOnUse">
<stop stop-color="white" stop-opacity="0.4"/>
<stop offset="1" stop-color="white" stop-opacity="0.1"/>
</linearGradient>
<clipPath id="clip0_531_4384">
<rect width="512" height="512" fill="white" transform="translate(0 0.5)"/>
</clipPath>
</defs>
</svg>
